<?xml version="1.0" encoding="UTF-8"?>
<!DOCTYPE svg PUBLIC "-//W3C//DTD SVG 1.1//EN" "http://www.w3.org/Graphics/SVG/1.1/DTD/svg11.dtd">
<!-- Creator: CorelDRAW 2019 (64-Bit) -->
<svg xmlns="http://www.w3.org/2000/svg" xml:space="preserve" width="800mm" height="800mm" version="1.1" style="shape-rendering:geometricPrecision; text-rendering:geometricPrecision; image-rendering:optimizeQuality; fill-rule:evenodd; clip-rule:evenodd"
viewBox="0 0 79990 79990"
 xmlns:xlink="http://www.w3.org/1999/xlink">
 <defs>
  <style type="text/css">
   <![CDATA[
    .fil0 {fill:none}
    .fil2 {fill:#22455C}
    .fil3 {fill:#437EA8}
    .fil4 {fill:#6CB0DD}
    .fil1 {fill:#22455C;fill-rule:nonzero}
   ]]>
  </style>
 </defs>
 <g id="图层_x0020_1">
  <metadata id="CorelCorpID_0Corel-Layer"/>
  <polygon class="fil0" points="-0,0 79990,0 79990,79990 -0,79990 "/>
  <g id="_1626315755328">
   <path class="fil1" d="M11536.41 59708.41l2568.27 -5826.86 1516.76 0 2568.26 5826.86 -1544.68 0 -604.84 -1345.33 -2354.25 0 -604.84 1345.33 -1544.68 0zm3331.29 -4420.38l-884.01 2035.48 1768.02 0 -884.01 -2035.48zm5707.4 -1406.48l0 3494.37c0,279.55 24.82,496.49 74.45,650.83 49.61,154.33 133.37,286.82 251.23,397.48 260.56,238.78 623.46,358.18 1088.72,358.18 297.77,0 556.77,-48.05 776.99,-144.14 220.23,-96.1 373.76,-225.68 460.62,-388.75 86.84,-163.07 130.26,-454.27 130.26,-873.59l0 -3494.37 1321.35 0 0 3433.22c0,454.26 -51.17,828.46 -153.53,1122.57 -102.37,294.1 -259,531.43 -469.92,711.97 -490.08,401.85 -1184.87,602.78 -2084.39,602.78 -961.54,0 -1662.54,-198.02 -2103,-594.05 -229.53,-203.84 -387.73,-432.43 -474.57,-685.77 -86.86,-253.34 -130.27,-610.05 -130.27,-1070.15l0 -3520.58 1312.05 0zm7159.02 1039.58l-1972.71 0 0 -1039.58 5350.55 0 0 1039.58 -2056.47 0 0 4787.28 -1321.36 0 0 -4787.28zm7261.38 -1074.52c620.36,0 1166.26,99.01 1637.74,297.01 552.11,238.79 939.83,637.73 1163.16,1196.83 173.7,436.8 260.55,949.3 260.55,1537.52 0,594.05 -105.46,1109.46 -316.38,1546.26 -266.75,518.34 -676.19,882.33 -1228.31,1091.99 -409.43,151.42 -880.9,227.13 -1414.39,227.13 -701,0 -1308.96,-122.3 -1823.85,-366.91 -434.24,-203.83 -766.12,-524.15 -995.67,-960.95 -229.53,-436.8 -344.3,-966.77 -344.3,-1589.93 0,-1112.38 294.67,-1904.43 884.01,-2376.17 496.28,-396.03 1222.1,-596.96 2177.44,-602.77zm9.31 978.42c-607.94,0 -1042.2,186.37 -1302.74,559.1 -210.92,291.19 -316.39,760.02 -316.39,1406.48 0,681.4 130.28,1182.26 390.82,1502.57 260.56,314.5 673.09,471.74 1237.61,471.74 545.92,0 947.59,-160.16 1205.05,-480.47 257.44,-320.32 386.16,-815.36 386.16,-1485.1 0,-611.51 -105.47,-1077.44 -316.38,-1397.76 -241.94,-378.55 -669.98,-570.74 -1284.13,-576.57zm8108.16 -943.48l1312.05 0 0 3275.97c18.61,413.5 37.23,687.22 55.83,821.18 43.42,267.91 179.91,449.9 409.44,546 229.52,96.09 632.76,144.14 1209.69,144.14l1265.51 0 0 1039.57 -1405.09 0c-663.78,0 -1144.56,-34.95 -1442.32,-104.83 -682.38,-186.37 -1116.64,-594.05 -1302.75,-1223.04 -68.23,-244.6 -102.36,-652.28 -102.36,-1223.03l0 -3275.97zm4897.83 5826.86l2568.27 -5826.86 1516.77 0 2568.26 5826.86 -1544.68 0 -604.85 -1345.33 -2354.24 0 -604.85 1345.33 -1544.68 0zm3331.3 -4420.38l-884.01 2035.48 1768.02 0 -884.01 -2035.48zm5735.31 148.51l0 4271.87 -1265.52 0 0 -5826.86 1693.56 0 2465.91 4341.76 0 -4341.76 1256.21 0 0 5826.86 -1619.12 0 -2531.04 -4271.87zm8173.29 812.44l3042.84 0 0 3459.43 -2772.98 0c-477.67,0 -857.63,-33.49 -1139.91,-100.47 -282.25,-66.97 -538.15,-184.91 -767.68,-353.8 -651.37,-471.74 -977.06,-1284.18 -977.06,-2437.33 0,-751.29 155.09,-1377.37 465.26,-1878.23 229.54,-366.9 542.81,-634.81 939.84,-803.7 397.03,-168.9 911.93,-253.35 1544.69,-253.35l2707.84 0 0 1039.58 -2558.96 0c-552.12,0 -952.24,113.57 -1200.39,340.7 -297.76,267.91 -446.64,748.38 -446.64,1441.43 0,355.26 38.77,675.58 116.32,960.95 77.54,285.37 184.55,497.95 321.03,637.72 117.87,128.12 280.7,221.31 488.53,279.56 207.82,58.23 463.71,87.36 767.68,87.36l1200.39 0 0 -1380.28 -1730.79 0 0 -1039.58z"/>
   <g>
    <polygon class="fil2" points="44606.37,48215.11 35072.15,48215.11 39567.8,39195.98 "/>
    <path class="fil3" d="M33047.67 25747.88l6514.74 -11540.39 19903.07 34007.62 -9733.22 0 -8182.15 -14646.19c-2018.27,-3612.68 -4907.43,-6452.77 -8502.44,-7821.04z"/>
    <path class="fil4" d="M20364.54 48215.11l10529.87 -18652.91c2510,857.39 4726.07,2568.87 6030.55,4903.04l7.74 13.86 -6846.82 13736.01 -9721.33 0z"/>
   </g>
  </g>
 </g>
</svg>
